<mxfile host="app.diagrams.net" modified="2023-04-03T08:56:46.305Z" agent="Mozilla/5.0 (Windows NT 10.0; Win64; x64) AppleWebKit/537.36 (KHTML, like Gecko) Chrome/111.0.0.0 Safari/537.36 Edg/111.0.1661.62" etag="vRSTyn1E1OG4xDE-6TaA" version="21.1.1" type="device">
  <diagram id="6a731a19-8d31-9384-78a2-239565b7b9f0" name="Page-1">
    <mxGraphModel dx="1744" dy="1037" grid="1" gridSize="10" guides="1" tooltips="1" connect="1" arrows="1" fold="1" page="1" pageScale="1" pageWidth="1169" pageHeight="827" background="none" math="0" shadow="0">
      <root>
        <mxCell id="0" />
        <mxCell id="1" parent="0" />
        <mxCell id="57" value="사용자" style="strokeColor=#BAC8D3;fillColor=#23445D;fontSize=24;strokeWidth=2;horizontal=0;fontFamily=Helvetica;html=1;fontColor=#FFFFFF;fontStyle=0;rounded=0;" parent="1" vertex="1">
          <mxGeometry x="100" y="440" width="50" height="300" as="geometry" />
        </mxCell>
        <mxCell id="58" value="Lane 1.1" style="strokeColor=#BAC8D3;fillColor=#5d7f99;fontSize=19;strokeWidth=2;horizontal=0;fontFamily=Helvetica;html=1;labelBackgroundColor=none;fontColor=#FFFFFF;rounded=0;" parent="1" vertex="1">
          <mxGeometry x="150" y="440" width="40" height="100" as="geometry" />
        </mxCell>
        <mxCell id="59" value="" style="strokeColor=#BAC8D3;fillColor=#5d7f99;fontSize=19;strokeWidth=2;fontFamily=Helvetica;html=1;labelBackgroundColor=none;fontColor=#FFFFFF;rounded=0;" parent="1" vertex="1">
          <mxGeometry x="100" y="360" width="90" height="80" as="geometry" />
        </mxCell>
        <mxCell id="60" value="Lane 1.2" style="strokeColor=#BAC8D3;fillColor=#5d7f99;fontSize=19;strokeWidth=2;horizontal=0;fontFamily=Helvetica;html=1;labelBackgroundColor=none;fontColor=#FFFFFF;rounded=0;" parent="1" vertex="1">
          <mxGeometry x="150" y="540" width="40" height="100" as="geometry" />
        </mxCell>
        <mxCell id="61" value="Lane 1.3" style="strokeColor=#BAC8D3;fillColor=#5d7f99;fontSize=19;strokeWidth=2;horizontal=0;fontFamily=Helvetica;html=1;labelBackgroundColor=none;fontColor=#FFFFFF;rounded=0;" parent="1" vertex="1">
          <mxGeometry x="150" y="640" width="40" height="100" as="geometry" />
        </mxCell>
        <mxCell id="62" value="Lane 2.2" style="strokeColor=#BAC8D3;fillColor=#5d7f99;fontSize=19;strokeWidth=2;horizontal=0;fontFamily=Helvetica;html=1;labelBackgroundColor=none;fontColor=#FFFFFF;rounded=0;" parent="1" vertex="1">
          <mxGeometry x="150" y="840" width="40" height="100" as="geometry" />
        </mxCell>
        <mxCell id="63" value="Lane 2.1" style="strokeColor=#BAC8D3;fillColor=#5d7f99;fontSize=19;strokeWidth=2;horizontal=0;fontFamily=Helvetica;html=1;labelBackgroundColor=none;fontColor=#FFFFFF;rounded=0;" parent="1" vertex="1">
          <mxGeometry x="150" y="740" width="40" height="100" as="geometry" />
        </mxCell>
        <mxCell id="64" value="크리에이터" style="strokeColor=#BAC8D3;fillColor=#23445D;fontSize=24;strokeWidth=2;horizontal=0;fontFamily=Helvetica;html=1;fontColor=#FFFFFF;fontStyle=0;rounded=0;" parent="1" vertex="1">
          <mxGeometry x="100" y="740" width="50" height="200" as="geometry" />
        </mxCell>
        <mxCell id="65" value="Lane 3.2" style="strokeColor=#BAC8D3;fillColor=#5d7f99;fontSize=19;strokeWidth=2;horizontal=0;fontFamily=Helvetica;html=1;labelBackgroundColor=none;fontColor=#FFFFFF;rounded=0;" parent="1" vertex="1">
          <mxGeometry x="150" y="1040" width="40" height="100" as="geometry" />
        </mxCell>
        <mxCell id="66" value="Lane 3.1" style="strokeColor=#BAC8D3;fillColor=#5d7f99;fontSize=19;strokeWidth=2;horizontal=0;fontFamily=Helvetica;html=1;labelBackgroundColor=none;fontColor=#FFFFFF;rounded=0;" parent="1" vertex="1">
          <mxGeometry x="150" y="940" width="40" height="100" as="geometry" />
        </mxCell>
        <mxCell id="67" value="관리자" style="strokeColor=#BAC8D3;fillColor=#23445D;fontSize=24;strokeWidth=2;horizontal=0;fontFamily=Helvetica;html=1;fontColor=#FFFFFF;fontStyle=0;rounded=0;" parent="1" vertex="1">
          <mxGeometry x="100" y="940" width="50" height="200" as="geometry" />
        </mxCell>
        <mxCell id="68" value="" style="strokeColor=#FFFFFF;fillColor=#BAC8D3;fontSize=18;strokeWidth=2;fontFamily=Helvetica;html=1;opacity=60;rounded=0;" parent="1" vertex="1">
          <mxGeometry x="190" y="440" width="646.6666666666666" height="100" as="geometry" />
        </mxCell>
        <mxCell id="69" value="" style="strokeColor=#FFFFFF;fillColor=#BAC8D3;fontSize=18;strokeWidth=2;fontFamily=Helvetica;html=1;opacity=90;rounded=0;" parent="1" vertex="1">
          <mxGeometry x="190" y="540" width="646.6666666666666" height="100" as="geometry" />
        </mxCell>
        <mxCell id="70" value="" style="strokeColor=#FFFFFF;fillColor=#BAC8D3;fontSize=18;strokeWidth=2;fontFamily=Helvetica;html=1;opacity=60;rounded=0;" parent="1" vertex="1">
          <mxGeometry x="190" y="640" width="646.6666666666666" height="100" as="geometry" />
        </mxCell>
        <mxCell id="71" value="" style="strokeColor=#FFFFFF;fillColor=#BAC8D3;fontSize=18;strokeWidth=2;fontFamily=Helvetica;html=1;opacity=90;rounded=0;" parent="1" vertex="1">
          <mxGeometry x="190" y="740" width="646.6666666666666" height="100" as="geometry" />
        </mxCell>
        <mxCell id="72" value="" style="strokeColor=#FFFFFF;fillColor=#BAC8D3;fontSize=18;strokeWidth=2;fontFamily=Helvetica;html=1;opacity=60;rounded=0;" parent="1" vertex="1">
          <mxGeometry x="190" y="840" width="646.6666666666666" height="100" as="geometry" />
        </mxCell>
        <mxCell id="73" value="" style="strokeColor=#FFFFFF;fillColor=#BAC8D3;fontSize=18;strokeWidth=2;fontFamily=Helvetica;html=1;opacity=90;rounded=0;" parent="1" vertex="1">
          <mxGeometry x="190" y="940" width="646.6666666666666" height="100" as="geometry" />
        </mxCell>
        <mxCell id="74" value="" style="strokeColor=#FFFFFF;fillColor=#BAC8D3;fontSize=18;strokeWidth=2;fontFamily=Helvetica;html=1;opacity=60;rounded=0;" parent="1" vertex="1">
          <mxGeometry x="190" y="1040" width="646.6666666666666" height="100" as="geometry" />
        </mxCell>
        <mxCell id="75" value="" style="strokeColor=#FFFFFF;fillColor=#BAC8D3;fontSize=18;strokeWidth=2;fontFamily=Helvetica;html=1;opacity=60;rounded=0;" parent="1" vertex="1">
          <mxGeometry x="836.6666666666666" y="440" width="647" height="100" as="geometry" />
        </mxCell>
        <mxCell id="76" value="" style="strokeColor=#FFFFFF;fillColor=#BAC8D3;fontSize=20;strokeWidth=2;fontFamily=Helvetica;html=1;opacity=90;rounded=0;" parent="1" vertex="1">
          <mxGeometry x="836.6666666666666" y="540" width="646.6666666666666" height="100" as="geometry" />
        </mxCell>
        <mxCell id="77" value="" style="strokeColor=#FFFFFF;fillColor=#BAC8D3;fontSize=20;strokeWidth=2;fontFamily=Helvetica;html=1;opacity=60;rounded=0;" parent="1" vertex="1">
          <mxGeometry x="836.6666666666666" y="640" width="646.6666666666666" height="100" as="geometry" />
        </mxCell>
        <mxCell id="78" value="" style="strokeColor=#FFFFFF;fillColor=#BAC8D3;fontSize=20;strokeWidth=2;fontFamily=Helvetica;html=1;opacity=90;rounded=0;" parent="1" vertex="1">
          <mxGeometry x="836.6666666666666" y="740" width="646.6666666666666" height="100" as="geometry" />
        </mxCell>
        <mxCell id="79" value="" style="strokeColor=#FFFFFF;fillColor=#BAC8D3;fontSize=20;strokeWidth=2;fontFamily=Helvetica;html=1;opacity=60;rounded=0;" parent="1" vertex="1">
          <mxGeometry x="836.9966666666667" y="840" width="646.6666666666666" height="100" as="geometry" />
        </mxCell>
        <mxCell id="80" value="" style="strokeColor=#FFFFFF;fillColor=#BAC8D3;fontSize=20;strokeWidth=2;fontFamily=Helvetica;html=1;opacity=90;rounded=0;" parent="1" vertex="1">
          <mxGeometry x="836.6666666666666" y="940" width="646.6666666666666" height="100" as="geometry" />
        </mxCell>
        <mxCell id="81" value="" style="strokeColor=#FFFFFF;fillColor=#BAC8D3;fontSize=20;strokeWidth=2;fontFamily=Helvetica;html=1;opacity=60;fontStyle=4;rounded=0;" parent="1" vertex="1">
          <mxGeometry x="836.6666666666666" y="1040" width="646.6666666666666" height="100" as="geometry" />
        </mxCell>
        <mxCell id="82" value="" style="strokeColor=#FFFFFF;fillColor=#BAC8D3;fontSize=18;strokeWidth=2;fontFamily=Helvetica;html=1;opacity=60;rounded=0;" parent="1" vertex="1">
          <mxGeometry x="1483.3333333333333" y="440" width="647" height="100" as="geometry" />
        </mxCell>
        <mxCell id="83" value="" style="strokeColor=#FFFFFF;fillColor=#BAC8D3;fontSize=18;strokeWidth=2;fontFamily=Helvetica;html=1;opacity=90;rounded=0;" parent="1" vertex="1">
          <mxGeometry x="1483.3333333333333" y="540" width="646.6666666666666" height="100" as="geometry" />
        </mxCell>
        <mxCell id="84" value="" style="strokeColor=#FFFFFF;fillColor=#BAC8D3;fontSize=18;strokeWidth=2;fontFamily=Helvetica;html=1;opacity=60;rounded=0;" parent="1" vertex="1">
          <mxGeometry x="1483.3333333333333" y="640" width="646.6666666666666" height="100" as="geometry" />
        </mxCell>
        <mxCell id="85" value="" style="strokeColor=#FFFFFF;fillColor=#BAC8D3;fontSize=18;strokeWidth=2;fontFamily=Helvetica;html=1;opacity=90;rounded=0;" parent="1" vertex="1">
          <mxGeometry x="1483.3333333333333" y="840" width="646.6666666666666" height="100" as="geometry" />
        </mxCell>
        <mxCell id="86" value="" style="strokeColor=#FFFFFF;fillColor=#BAC8D3;fontSize=18;strokeWidth=2;fontFamily=Helvetica;html=1;opacity=60;rounded=0;" parent="1" vertex="1">
          <mxGeometry x="1483.6633333333332" y="740" width="646.6666666666666" height="100" as="geometry" />
        </mxCell>
        <mxCell id="87" value="" style="strokeColor=#FFFFFF;fillColor=#BAC8D3;fontSize=18;strokeWidth=2;fontFamily=Helvetica;html=1;opacity=90;rounded=0;" parent="1" vertex="1">
          <mxGeometry x="1483.3333333333333" y="940" width="646.6666666666666" height="100" as="geometry" />
        </mxCell>
        <mxCell id="88" value="" style="strokeColor=#FFFFFF;fillColor=#BAC8D3;fontSize=18;strokeWidth=2;fontFamily=Helvetica;html=1;opacity=60;fontStyle=4;rounded=0;" parent="1" vertex="1">
          <mxGeometry x="1483.3333333333333" y="1040" width="646.6666666666666" height="100" as="geometry" />
        </mxCell>
        <mxCell id="90" value="&lt;font&gt;&lt;span style=&quot;font-size: 20px;&quot;&gt;회원가입&lt;/span&gt;&lt;/font&gt;" style="rounded=0;fillColor=#23445D;strokeColor=none;strokeWidth=2;fontFamily=Helvetica;html=1;gradientColor=none;fontColor=#FFFFFF;" parent="1" vertex="1">
          <mxGeometry x="216.39455782312928" y="465" width="127" height="50" as="geometry" />
        </mxCell>
        <mxCell id="97" value="&lt;font color=&quot;#ffffff&quot;&gt;클래스 신청&lt;/font&gt;" style="rounded=0;fillColor=#23445D;strokeColor=none;strokeWidth=2;fontFamily=Helvetica;html=1;gradientColor=none;fontSize=20;" parent="1" vertex="1">
          <mxGeometry x="1107.4149659863945" y="680" width="127" height="50" as="geometry" />
        </mxCell>
        <mxCell id="98" value="회원정보수정" style="rounded=0;fillColor=#23445D;strokeColor=none;strokeWidth=2;fontFamily=Helvetica;html=1;gradientColor=none;fontSize=20;fontColor=#FFFFFF;" parent="1" vertex="1">
          <mxGeometry x="1318.5714285714284" y="465" width="127" height="50" as="geometry" />
        </mxCell>
        <mxCell id="105" value="클래스 관리" style="rounded=0;fillColor=#23445D;strokeColor=none;strokeWidth=2;fontFamily=Helvetica;html=1;gradientColor=none;fontSize=20;fontColor=#FFFFFF;" parent="1" vertex="1">
          <mxGeometry x="1318.5714285714284" y="777" width="127" height="50" as="geometry" />
        </mxCell>
        <mxCell id="106" value="정산 관리" style="rounded=0;fillColor=#23445D;strokeColor=none;strokeWidth=2;gradientColor=none;fontFamily=Helvetica;html=1;fontSize=20;fontColor=#FFFFFF;" parent="1" vertex="1">
          <mxGeometry x="1500" y="1070" width="180" height="30" as="geometry" />
        </mxCell>
        <mxCell id="108" value="&lt;font color=&quot;#ffffff&quot;&gt;클래스 수강&lt;/font&gt;" style="rounded=0;fillColor=#23445D;strokeColor=none;strokeWidth=2;gradientColor=none;fontFamily=Helvetica;html=1;fontSize=20;" parent="1" vertex="1">
          <mxGeometry x="1318.5678911564623" y="680" width="127" height="50" as="geometry" />
        </mxCell>
        <mxCell id="110" value="클래스 통계" style="rounded=0;fillColor=#23445D;strokeColor=none;strokeWidth=2;gradientColor=none;fontFamily=Helvetica;html=1;fontColor=#FFFFFF;fontSize=20;" parent="1" vertex="1">
          <mxGeometry x="1743.5016326530613" y="1080" width="127" height="50" as="geometry" />
        </mxCell>
        <mxCell id="111" value="&lt;font color=&quot;#ffffff&quot;&gt;회원탈퇴&lt;/font&gt;" style="rounded=0;fillColor=#23445D;strokeColor=none;strokeWidth=2;gradientColor=none;fontFamily=Helvetica;html=1;fontSize=20;" parent="1" vertex="1">
          <mxGeometry x="1600.0016326530613" y="465" width="127" height="50" as="geometry" />
        </mxCell>
        <mxCell id="112" value="" style="edgeStyle=elbowEdgeStyle;elbow=horizontal;strokeWidth=3;strokeColor=#0C343D;fontFamily=Helvetica;html=1;rounded=0;fontSize=20;" parent="1" source="90" target="VHRcU0e1Trz6SRrGmubA-173" edge="1">
          <mxGeometry x="-47.551020408163254" y="340" width="131.97278911564624" height="100" as="geometry">
            <mxPoint x="-47.551020408163254" y="440" as="sourcePoint" />
            <mxPoint x="424" y="890" as="targetPoint" />
            <Array as="points">
              <mxPoint x="368" y="703" />
            </Array>
          </mxGeometry>
        </mxCell>
        <mxCell id="115" value="" style="edgeStyle=elbowEdgeStyle;elbow=horizontal;strokeWidth=3;strokeColor=#0C343D;fontFamily=Helvetica;html=1;rounded=0;fontSize=20;exitX=1;exitY=0.5;exitDx=0;exitDy=0;entryX=0;entryY=0.5;entryDx=0;entryDy=0;" parent="1" source="VHRcU0e1Trz6SRrGmubA-175" target="VHRcU0e1Trz6SRrGmubA-205" edge="1">
          <mxGeometry x="-47.551020408163254" y="340" width="131.97278911564624" height="100" as="geometry">
            <mxPoint x="551.3537414965986" y="690" as="sourcePoint" />
            <mxPoint x="661.9047619047619" y="790" as="targetPoint" />
            <Array as="points">
              <mxPoint x="610" y="600" />
              <mxPoint x="580" y="590" />
            </Array>
          </mxGeometry>
        </mxCell>
        <mxCell id="116" value="" style="edgeStyle=elbowEdgeStyle;elbow=horizontal;strokeWidth=3;strokeColor=#0C343D;fontFamily=Helvetica;html=1;rounded=0;fontSize=20;entryX=0;entryY=0.5;entryDx=0;entryDy=0;exitX=1;exitY=0.5;exitDx=0;exitDy=0;" parent="1" source="VHRcU0e1Trz6SRrGmubA-173" target="VHRcU0e1Trz6SRrGmubA-176" edge="1">
          <mxGeometry x="-47.551020408163254" y="340" width="131.97278911564624" height="100" as="geometry">
            <mxPoint x="551.3537414965986" y="890" as="sourcePoint" />
            <mxPoint x="660" y="790" as="targetPoint" />
            <Array as="points">
              <mxPoint x="610" y="820" />
            </Array>
          </mxGeometry>
        </mxCell>
        <mxCell id="120" value="" style="edgeStyle=elbowEdgeStyle;elbow=horizontal;strokeWidth=3;strokeColor=#0C343D;fontFamily=Helvetica;html=1;rounded=0;fontSize=20;" parent="1" source="71" target="70" edge="1">
          <mxGeometry x="-47.551020408163254" y="340" width="131.97278911564624" height="100" as="geometry">
            <mxPoint x="788.9047619047619" y="790" as="sourcePoint" />
            <mxPoint x="84.42176870748301" y="340" as="targetPoint" />
          </mxGeometry>
        </mxCell>
        <mxCell id="121" value="" style="edgeStyle=elbowEdgeStyle;elbow=horizontal;strokeWidth=3;strokeColor=#0C343D;fontFamily=Helvetica;html=1;rounded=0;fontSize=20;exitX=1;exitY=0.5;exitDx=0;exitDy=0;entryX=0;entryY=0.5;entryDx=0;entryDy=0;" parent="1" source="VHRcU0e1Trz6SRrGmubA-165" target="VHRcU0e1Trz6SRrGmubA-166" edge="1">
          <mxGeometry x="-47.551020408163254" y="340" width="131.97278911564624" height="100" as="geometry">
            <mxPoint x="1013.2585034013605" y="790" as="sourcePoint" />
            <mxPoint x="1100" y="785" as="targetPoint" />
          </mxGeometry>
        </mxCell>
        <mxCell id="124" value="" style="edgeStyle=elbowEdgeStyle;elbow=horizontal;strokeWidth=3;strokeColor=#0C343D;fontFamily=Helvetica;html=1;rounded=0;fontSize=20;entryX=0.016;entryY=0.286;entryDx=0;entryDy=0;entryPerimeter=0;" parent="1" target="VHRcU0e1Trz6SRrGmubA-208" edge="1">
          <mxGeometry x="-47.551020408163254" y="340" width="131.97278911564624" height="100" as="geometry">
            <mxPoint x="1000" y="1040" as="sourcePoint" />
            <mxPoint x="1100" y="1040" as="targetPoint" />
            <Array as="points">
              <mxPoint x="1050" y="1050" />
            </Array>
          </mxGeometry>
        </mxCell>
        <mxCell id="125" value="" style="edgeStyle=elbowEdgeStyle;elbow=horizontal;strokeWidth=3;strokeColor=#0C343D;fontFamily=Helvetica;html=1;rounded=0;fontSize=20;exitX=0.25;exitY=1;exitDx=0;exitDy=0;entryX=0;entryY=0.25;entryDx=0;entryDy=0;" parent="1" source="80" target="VHRcU0e1Trz6SRrGmubA-186" edge="1">
          <mxGeometry x="-47.551020408163254" y="340" width="131.97278911564624" height="100" as="geometry">
            <mxPoint x="1013.2585034013605" y="990" as="sourcePoint" />
            <mxPoint x="1107.4149659863942" y="1090" as="targetPoint" />
            <Array as="points">
              <mxPoint x="1050" y="1070" />
            </Array>
          </mxGeometry>
        </mxCell>
        <mxCell id="126" value="" style="edgeStyle=elbowEdgeStyle;elbow=horizontal;strokeWidth=3;strokeColor=#0C343D;fontFamily=Helvetica;html=1;rounded=0;fontSize=20;exitX=1;exitY=0.5;exitDx=0;exitDy=0;" parent="1" source="VHRcU0e1Trz6SRrGmubA-186" target="110" edge="1">
          <mxGeometry x="-47.551020408163254" y="340" width="131.97278911564624" height="100" as="geometry">
            <mxPoint x="1234.4149659863942" y="1090" as="sourcePoint" />
            <mxPoint x="84.42176870748301" y="340" as="targetPoint" />
          </mxGeometry>
        </mxCell>
        <mxCell id="130" value="" style="edgeStyle=elbowEdgeStyle;elbow=horizontal;strokeWidth=3;strokeColor=#0C343D;fontFamily=Helvetica;html=1;rounded=0;fontSize=20;exitX=1;exitY=0.5;exitDx=0;exitDy=0;" parent="1" source="VHRcU0e1Trz6SRrGmubA-208" target="106" edge="1">
          <mxGeometry x="-47.551020408163254" y="340" width="131.97278911564624" height="100" as="geometry">
            <mxPoint x="1234.4149659863942" y="1035" as="sourcePoint" />
            <mxPoint x="84.42176870748301" y="340" as="targetPoint" />
            <Array as="points" />
          </mxGeometry>
        </mxCell>
        <mxCell id="132" value="" style="edgeStyle=elbowEdgeStyle;elbow=horizontal;strokeWidth=3;strokeColor=#0C343D;fontFamily=Helvetica;html=1;rounded=0;fontSize=20;exitX=1;exitY=0.5;exitDx=0;exitDy=0;" parent="1" source="VHRcU0e1Trz6SRrGmubA-166" target="105" edge="1">
          <mxGeometry x="-47.551020408163254" y="340" width="131.97278911564624" height="100" as="geometry">
            <mxPoint x="1234.4149659863942" y="790" as="sourcePoint" />
            <mxPoint x="84.42176870748301" y="340" as="targetPoint" />
          </mxGeometry>
        </mxCell>
        <mxCell id="135" value="" style="edgeStyle=elbowEdgeStyle;elbow=horizontal;strokeWidth=3;strokeColor=#0C343D;fontFamily=Helvetica;html=1;rounded=0;fontSize=20;" parent="1" source="98" target="111" edge="1">
          <mxGeometry x="-47.551020408163254" y="340" width="131.97278911564624" height="100" as="geometry">
            <mxPoint x="-47.551020408163254" y="440" as="sourcePoint" />
            <mxPoint x="84.42176870748301" y="340" as="targetPoint" />
          </mxGeometry>
        </mxCell>
        <mxCell id="136" value="" style="edgeStyle=elbowEdgeStyle;elbow=horizontal;strokeWidth=3;strokeColor=#0C343D;fontFamily=Helvetica;html=1;rounded=0;exitX=1;exitY=0.5;exitDx=0;exitDy=0;" parent="1" source="VHRcU0e1Trz6SRrGmubA-189" edge="1">
          <mxGeometry x="-47.551020408163254" y="340" width="131.97278911564624" height="100" as="geometry">
            <mxPoint x="-47.551020408163254" y="440" as="sourcePoint" />
            <mxPoint x="1880" y="1105" as="targetPoint" />
            <Array as="points">
              <mxPoint x="2000" y="850" />
            </Array>
          </mxGeometry>
        </mxCell>
        <mxCell id="138" value="" style="edgeStyle=elbowEdgeStyle;elbow=horizontal;strokeWidth=3;strokeColor=#0C343D;fontFamily=Helvetica;html=1;rounded=0;fontSize=20;entryX=0;entryY=0.5;entryDx=0;entryDy=0;" parent="1" source="106" target="VHRcU0e1Trz6SRrGmubA-238" edge="1">
          <mxGeometry x="-47.551020408163254" y="340" width="131.97278911564624" height="100" as="geometry">
            <mxPoint x="-47.551020408163254" y="440" as="sourcePoint" />
            <mxPoint x="1727.0016326530613" y="915" as="targetPoint" />
          </mxGeometry>
        </mxCell>
        <mxCell id="140" value="" style="group;rounded=0;" parent="1" vertex="1" connectable="0">
          <mxGeometry x="190" y="400" width="1946" height="40" as="geometry" />
        </mxCell>
        <mxCell id="141" value="Milestone 1" style="strokeColor=#BAC8D3;fillColor=#5d7f99;fontSize=19;strokeWidth=2;fontFamily=Helvetica;html=1;labelBackgroundColor=none;fontColor=#FFFFFF;rounded=0;" parent="140" vertex="1">
          <mxGeometry width="646.6656362699642" height="40" as="geometry" />
        </mxCell>
        <mxCell id="142" value="Milestone 2" style="strokeColor=#BAC8D3;fillColor=#5d7f99;fontSize=19;strokeWidth=2;fontFamily=Helvetica;html=1;labelBackgroundColor=none;fontColor=#FFFFFF;rounded=0;" parent="140" vertex="1">
          <mxGeometry x="646.6656362699642" width="646.6656362699642" height="40" as="geometry" />
        </mxCell>
        <mxCell id="143" value="Milestone 3" style="strokeColor=#BAC8D3;fillColor=#5d7f99;fontSize=19;strokeWidth=2;fontFamily=Helvetica;html=1;labelBackgroundColor=none;fontColor=#FFFFFF;rounded=0;" parent="140" vertex="1">
          <mxGeometry x="1293.3312725399282" width="646.6666666666666" height="40" as="geometry" />
        </mxCell>
        <mxCell id="56" value="LiClass Project&lt;br&gt;" style="strokeColor=#BAC8D3;fillColor=#23445D;fontSize=24;strokeWidth=2;fontFamily=Helvetica;html=1;fontColor=#FFFFFF;fontStyle=0;spacingBottom=8;spacingRight=0;spacingLeft=83;rounded=0;" parent="1" vertex="1">
          <mxGeometry x="100.33000000000001" y="320" width="2030" height="80" as="geometry" />
        </mxCell>
        <mxCell id="VHRcU0e1Trz6SRrGmubA-151" value="&lt;font&gt;&lt;span style=&quot;font-size: 20px;&quot;&gt;회원가입&lt;/span&gt;&lt;/font&gt;" style="rounded=0;fillColor=#23445D;strokeColor=none;strokeWidth=2;fontFamily=Helvetica;html=1;gradientColor=none;fontColor=#FFFFFF;" parent="1" vertex="1">
          <mxGeometry x="216.39455782312928" y="465" width="127" height="50" as="geometry" />
        </mxCell>
        <mxCell id="VHRcU0e1Trz6SRrGmubA-163" value="&lt;font&gt;&lt;span style=&quot;font-size: 20px;&quot;&gt;회원가입&lt;/span&gt;&lt;/font&gt;" style="rounded=0;fillColor=#23445D;strokeColor=none;strokeWidth=2;fontFamily=Helvetica;html=1;gradientColor=none;fontColor=#FFFFFF;" parent="1" vertex="1">
          <mxGeometry x="216.39455782312928" y="465" width="127" height="50" as="geometry" />
        </mxCell>
        <mxCell id="VHRcU0e1Trz6SRrGmubA-165" value="로그인" style="rounded=0;fillColor=#23445D;strokeColor=none;strokeWidth=2;fontFamily=Helvetica;html=1;gradientColor=none;fontSize=20;fontColor=#FFFFFF;" parent="1" vertex="1">
          <mxGeometry x="880" y="777" width="130" height="50" as="geometry" />
        </mxCell>
        <mxCell id="VHRcU0e1Trz6SRrGmubA-166" value="&lt;font color=&quot;#ffffff&quot;&gt;클래스 등록&lt;/font&gt;" style="rounded=0;fillColor=#23445D;strokeColor=none;strokeWidth=2;fontFamily=Helvetica;html=1;gradientColor=none;fontSize=20;" parent="1" vertex="1">
          <mxGeometry x="1107.4149659863945" y="777" width="127" height="50" as="geometry" />
        </mxCell>
        <mxCell id="VHRcU0e1Trz6SRrGmubA-173" value="크리에이터&lt;br&gt;회원" style="rounded=0;fillColor=#23445D;strokeColor=none;strokeWidth=2;fontFamily=Helvetica;html=1;gradientColor=none;fontColor=#FFFFFF;fontSize=20;" parent="1" vertex="1">
          <mxGeometry x="424.3537414965986" y="777" width="127" height="50" as="geometry" />
        </mxCell>
        <mxCell id="VHRcU0e1Trz6SRrGmubA-175" value="일반회원" style="rounded=0;fillColor=#23445D;strokeColor=none;strokeWidth=2;fontFamily=Helvetica;html=1;gradientColor=none;fontColor=#FFFFFF;fontSize=20;" parent="1" vertex="1">
          <mxGeometry x="430.0037414965986" y="480" width="127" height="50" as="geometry" />
        </mxCell>
        <mxCell id="VHRcU0e1Trz6SRrGmubA-176" value="이메일 인증" style="rounded=0;fillColor=#23445D;strokeColor=none;strokeWidth=2;fontFamily=Helvetica;html=1;gradientColor=none;fontColor=#FFFFFF;fontSize=20;" parent="1" vertex="1">
          <mxGeometry x="661.9047619047619" y="777" width="127" height="50" as="geometry" />
        </mxCell>
        <mxCell id="VHRcU0e1Trz6SRrGmubA-177" value="SNS 인증" style="rounded=0;fillColor=#23445D;strokeColor=none;strokeWidth=2;fontFamily=Helvetica;html=1;gradientColor=none;fontColor=#FFFFFF;fontSize=20;" parent="1" vertex="1">
          <mxGeometry x="661.9047619047619" y="465" width="127" height="50" as="geometry" />
        </mxCell>
        <mxCell id="VHRcU0e1Trz6SRrGmubA-178" value="&lt;font&gt;&lt;span style=&quot;font-size: 20px;&quot;&gt;회원가입&lt;/span&gt;&lt;/font&gt;" style="rounded=0;fillColor=#23445D;strokeColor=none;strokeWidth=2;fontFamily=Helvetica;html=1;gradientColor=none;fontColor=#FFFFFF;" parent="1" vertex="1">
          <mxGeometry x="216.39455782312928" y="465" width="127" height="50" as="geometry" />
        </mxCell>
        <mxCell id="VHRcU0e1Trz6SRrGmubA-182" value="로그인" style="rounded=0;fillColor=#23445D;strokeColor=none;strokeWidth=2;fontFamily=Helvetica;html=1;gradientColor=none;fontColor=#FFFFFF;fontSize=20;" parent="1" vertex="1">
          <mxGeometry x="869.9985034013605" y="1010" width="127" height="50" as="geometry" />
        </mxCell>
        <mxCell id="VHRcU0e1Trz6SRrGmubA-183" value="일반회원관리" style="rounded=0;fillColor=#23445D;strokeColor=none;strokeWidth=2;fontFamily=Helvetica;html=1;gradientColor=none;fontColor=#FFFFFF;fontSize=20;" parent="1" vertex="1">
          <mxGeometry x="1107.41" y="1000" width="162.59" height="30" as="geometry" />
        </mxCell>
        <mxCell id="VHRcU0e1Trz6SRrGmubA-184" value="수강생 관리" style="rounded=0;fillColor=#23445D;strokeColor=none;strokeWidth=2;fontFamily=Helvetica;html=1;gradientColor=none;fontColor=#FFFFFF;fontSize=20;" parent="1" vertex="1">
          <mxGeometry x="1610.0014285714285" y="777" width="127" height="50" as="geometry" />
        </mxCell>
        <mxCell id="VHRcU0e1Trz6SRrGmubA-185" value="내 정보 관리" style="rounded=0;fillColor=#23445D;strokeColor=none;strokeWidth=2;fontFamily=Helvetica;html=1;gradientColor=none;fontColor=#FFFFFF;fontSize=20;" parent="1" vertex="1">
          <mxGeometry x="1107.4114285714284" y="465" width="127" height="50" as="geometry" />
        </mxCell>
        <mxCell id="VHRcU0e1Trz6SRrGmubA-186" value="클래스 관리" style="rounded=0;fillColor=#23445D;strokeColor=none;strokeWidth=2;fontFamily=Helvetica;html=1;gradientColor=none;fontColor=#FFFFFF;fontSize=20;" parent="1" vertex="1">
          <mxGeometry x="1107.41" y="1090" width="162.59" height="40" as="geometry" />
        </mxCell>
        <mxCell id="VHRcU0e1Trz6SRrGmubA-189" value="클래스 후기" style="rounded=0;fillColor=#23445D;strokeColor=none;strokeWidth=2;gradientColor=none;fontFamily=Helvetica;html=1;fontColor=#FFFFFF;fontSize=20;" parent="1" vertex="1">
          <mxGeometry x="1600.0016326530613" y="565" width="127" height="50" as="geometry" />
        </mxCell>
        <mxCell id="VHRcU0e1Trz6SRrGmubA-195" value="" style="edgeStyle=elbowEdgeStyle;elbow=horizontal;strokeWidth=3;strokeColor=#0C343D;fontFamily=Helvetica;html=1;rounded=0;fontSize=20;entryX=0;entryY=0.5;entryDx=0;entryDy=0;exitX=1;exitY=0.5;exitDx=0;exitDy=0;" parent="1" source="VHRcU0e1Trz6SRrGmubA-175" target="VHRcU0e1Trz6SRrGmubA-177" edge="1">
          <mxGeometry x="-37.551020408163254" y="350" width="131.97278911564624" height="100" as="geometry">
            <mxPoint x="550" y="590" as="sourcePoint" />
            <mxPoint x="660" y="590" as="targetPoint" />
            <Array as="points">
              <mxPoint x="610" y="510" />
              <mxPoint x="610" y="540" />
            </Array>
          </mxGeometry>
        </mxCell>
        <mxCell id="VHRcU0e1Trz6SRrGmubA-200" value="" style="edgeStyle=elbowEdgeStyle;elbow=horizontal;strokeWidth=3;strokeColor=#0C343D;fontFamily=Helvetica;html=1;rounded=0;fontSize=20;endArrow=none;" parent="1" target="VHRcU0e1Trz6SRrGmubA-180" edge="1">
          <mxGeometry x="-47.551020408163254" y="340" width="131.97278911564624" height="100" as="geometry">
            <mxPoint x="788.9047619047619" y="490" as="sourcePoint" />
            <mxPoint x="1107" y="590" as="targetPoint" />
            <Array as="points">
              <mxPoint x="840" y="540" />
            </Array>
          </mxGeometry>
        </mxCell>
        <mxCell id="VHRcU0e1Trz6SRrGmubA-180" value="로그인" style="rounded=0;fillColor=#23445D;strokeColor=none;strokeWidth=2;fontFamily=Helvetica;html=1;gradientColor=none;fontColor=#FFFFFF;fontSize=20;" parent="1" vertex="1">
          <mxGeometry x="869.9985034013605" y="565" width="127" height="50" as="geometry" />
        </mxCell>
        <mxCell id="VHRcU0e1Trz6SRrGmubA-203" value="" style="edgeStyle=elbowEdgeStyle;elbow=horizontal;strokeWidth=3;strokeColor=#0C343D;fontFamily=Helvetica;html=1;rounded=0;fontSize=20;endArrow=none;entryX=0;entryY=0.5;entryDx=0;entryDy=0;exitX=1;exitY=0.5;exitDx=0;exitDy=0;" parent="1" source="VHRcU0e1Trz6SRrGmubA-176" target="VHRcU0e1Trz6SRrGmubA-165" edge="1">
          <mxGeometry x="-47.551020408163254" y="589.17" width="131.97278911564624" height="100" as="geometry">
            <mxPoint x="788.9047619047619" y="739.17" as="sourcePoint" />
            <mxPoint x="886" y="739.17" as="targetPoint" />
            <Array as="points" />
          </mxGeometry>
        </mxCell>
        <mxCell id="VHRcU0e1Trz6SRrGmubA-205" value="이메일 인증" style="rounded=0;fillColor=#23445D;strokeColor=none;strokeWidth=2;fontFamily=Helvetica;html=1;gradientColor=none;fontColor=#FFFFFF;fontSize=20;" parent="1" vertex="1">
          <mxGeometry x="661.9047619047619" y="565" width="127" height="50" as="geometry" />
        </mxCell>
        <mxCell id="VHRcU0e1Trz6SRrGmubA-207" value="" style="edgeStyle=elbowEdgeStyle;elbow=horizontal;strokeWidth=3;strokeColor=#0C343D;fontFamily=Helvetica;html=1;rounded=0;fontSize=20;endArrow=none;" parent="1" source="VHRcU0e1Trz6SRrGmubA-205" edge="1">
          <mxGeometry x="-37.551020408163254" y="350" width="131.97278911564624" height="100" as="geometry">
            <mxPoint x="798.9047619047619" y="500" as="sourcePoint" />
            <mxPoint x="880" y="590" as="targetPoint" />
            <Array as="points">
              <mxPoint x="840" y="630" />
            </Array>
          </mxGeometry>
        </mxCell>
        <mxCell id="VHRcU0e1Trz6SRrGmubA-208" value="크리에이터관리" style="rounded=0;fillColor=#23445D;strokeColor=none;strokeWidth=2;fontFamily=Helvetica;html=1;gradientColor=none;fontColor=#FFFFFF;fontSize=20;" parent="1" vertex="1">
          <mxGeometry x="1107.41" y="1040" width="162.59" height="35" as="geometry" />
        </mxCell>
        <mxCell id="VHRcU0e1Trz6SRrGmubA-210" value="" style="edgeStyle=elbowEdgeStyle;elbow=horizontal;strokeWidth=3;strokeColor=#0C343D;fontFamily=Helvetica;html=1;rounded=0;fontSize=20;" parent="1" edge="1">
          <mxGeometry x="-37.551020408163254" y="350" width="131.97278911564624" height="100" as="geometry">
            <mxPoint x="990" y="1040" as="sourcePoint" />
            <mxPoint x="1110" y="1010" as="targetPoint" />
            <Array as="points">
              <mxPoint x="1050" y="1030" />
            </Array>
          </mxGeometry>
        </mxCell>
        <mxCell id="VHRcU0e1Trz6SRrGmubA-213" value="" style="edgeStyle=elbowEdgeStyle;elbow=horizontal;strokeWidth=3;strokeColor=#0C343D;fontFamily=Helvetica;html=1;rounded=0;fontSize=20;exitX=1;exitY=0.5;exitDx=0;exitDy=0;entryX=0;entryY=0.5;entryDx=0;entryDy=0;" parent="1" target="97" edge="1">
          <mxGeometry x="-47.14102040816326" y="144.17" width="131.97278911564624" height="100" as="geometry">
            <mxPoint x="1000.41" y="589.17" as="sourcePoint" />
            <mxPoint x="1107" y="589" as="targetPoint" />
          </mxGeometry>
        </mxCell>
        <mxCell id="VHRcU0e1Trz6SRrGmubA-218" value="" style="edgeStyle=elbowEdgeStyle;elbow=horizontal;strokeWidth=3;strokeColor=#0C343D;fontFamily=Helvetica;html=1;rounded=0;fontSize=20;entryX=0;entryY=0.5;entryDx=0;entryDy=0;" parent="1" target="VHRcU0e1Trz6SRrGmubA-185" edge="1">
          <mxGeometry x="-281.55102040816325" y="140" width="131.97278911564624" height="100" as="geometry">
            <mxPoint x="1000" y="590" as="sourcePoint" />
            <mxPoint x="1085" y="490" as="targetPoint" />
          </mxGeometry>
        </mxCell>
        <mxCell id="VHRcU0e1Trz6SRrGmubA-222" value="" style="edgeStyle=elbowEdgeStyle;elbow=horizontal;strokeWidth=3;strokeColor=#0C343D;fontFamily=Helvetica;html=1;rounded=0;fontSize=20;" parent="1" edge="1">
          <mxGeometry x="-47.14102040816326" y="139.17" width="131.97278911564624" height="100" as="geometry">
            <mxPoint x="1234.41" y="489.16999999999996" as="sourcePoint" />
            <mxPoint x="1319.41" y="489.16999999999996" as="targetPoint" />
          </mxGeometry>
        </mxCell>
        <mxCell id="VHRcU0e1Trz6SRrGmubA-223" value="클래스 관리" style="rounded=0;fillColor=#23445D;strokeColor=none;strokeWidth=2;fontFamily=Helvetica;html=1;gradientColor=none;fontSize=20;fontColor=#FFFFFF;" parent="1" vertex="1">
          <mxGeometry x="1318.5714285714284" y="530" width="127" height="50" as="geometry" />
        </mxCell>
        <mxCell id="VHRcU0e1Trz6SRrGmubA-224" value="결제내역관리" style="rounded=0;fillColor=#23445D;strokeColor=none;strokeWidth=2;fontFamily=Helvetica;html=1;gradientColor=none;fontSize=20;fontColor=#FFFFFF;" parent="1" vertex="1">
          <mxGeometry x="1318.5714285714284" y="590" width="127" height="50" as="geometry" />
        </mxCell>
        <mxCell id="VHRcU0e1Trz6SRrGmubA-227" value="" style="edgeStyle=elbowEdgeStyle;elbow=horizontal;strokeWidth=3;strokeColor=#0C343D;fontFamily=Helvetica;html=1;rounded=0;fontSize=20;" parent="1" edge="1">
          <mxGeometry x="-47.98102040816325" y="254.17000000000002" width="131.97278911564624" height="100" as="geometry">
            <mxPoint x="1233.57" y="704.17" as="sourcePoint" />
            <mxPoint x="1318.57" y="704.17" as="targetPoint" />
          </mxGeometry>
        </mxCell>
        <mxCell id="VHRcU0e1Trz6SRrGmubA-228" value="" style="edgeStyle=elbowEdgeStyle;elbow=horizontal;strokeWidth=3;strokeColor=#0C343D;fontFamily=Helvetica;html=1;rounded=0;fontSize=20;entryX=0;entryY=0.5;entryDx=0;entryDy=0;exitX=1;exitY=0.5;exitDx=0;exitDy=0;" parent="1" source="97" target="VHRcU0e1Trz6SRrGmubA-224" edge="1">
          <mxGeometry x="-37.98102040816325" y="264.17" width="131.97278911564624" height="100" as="geometry">
            <mxPoint x="1220" y="700" as="sourcePoint" />
            <mxPoint x="1328.57" y="714.17" as="targetPoint" />
            <Array as="points">
              <mxPoint x="1280" y="660" />
            </Array>
          </mxGeometry>
        </mxCell>
        <mxCell id="VHRcU0e1Trz6SRrGmubA-229" value="" style="edgeStyle=elbowEdgeStyle;elbow=horizontal;strokeWidth=3;strokeColor=#0C343D;fontFamily=Helvetica;html=1;rounded=0;fontSize=20;entryX=0;entryY=0.5;entryDx=0;entryDy=0;" parent="1" target="VHRcU0e1Trz6SRrGmubA-224" edge="1">
          <mxGeometry x="-27.981020408163253" y="274.17" width="131.97278911564624" height="100" as="geometry">
            <mxPoint x="1240" y="490" as="sourcePoint" />
            <mxPoint x="1310" y="640" as="targetPoint" />
            <Array as="points">
              <mxPoint x="1280" y="580" />
            </Array>
          </mxGeometry>
        </mxCell>
        <mxCell id="VHRcU0e1Trz6SRrGmubA-230" value="" style="edgeStyle=elbowEdgeStyle;elbow=horizontal;strokeWidth=3;strokeColor=#0C343D;fontFamily=Helvetica;html=1;rounded=0;fontSize=20;entryX=0;entryY=0.5;entryDx=0;entryDy=0;exitX=1;exitY=0.5;exitDx=0;exitDy=0;" parent="1" source="VHRcU0e1Trz6SRrGmubA-185" target="VHRcU0e1Trz6SRrGmubA-223" edge="1">
          <mxGeometry x="-17.981020408163253" y="284.17" width="131.97278911564624" height="100" as="geometry">
            <mxPoint x="1250" y="500" as="sourcePoint" />
            <mxPoint x="1320" y="650" as="targetPoint" />
            <Array as="points">
              <mxPoint x="1280" y="520" />
            </Array>
          </mxGeometry>
        </mxCell>
        <mxCell id="VHRcU0e1Trz6SRrGmubA-231" value="" style="edgeStyle=elbowEdgeStyle;elbow=horizontal;strokeWidth=3;strokeColor=#0C343D;fontFamily=Helvetica;html=1;rounded=0;fontSize=20;entryX=0;entryY=0.5;entryDx=0;entryDy=0;" parent="1" target="VHRcU0e1Trz6SRrGmubA-189" edge="1">
          <mxGeometry x="-47.551020408163254" y="404.17" width="131.97278911564624" height="100" as="geometry">
            <mxPoint x="1446" y="554.17" as="sourcePoint" />
            <mxPoint x="1590" y="570" as="targetPoint" />
            <Array as="points">
              <mxPoint x="1520" y="570" />
            </Array>
          </mxGeometry>
        </mxCell>
        <mxCell id="VHRcU0e1Trz6SRrGmubA-232" value="" style="edgeStyle=elbowEdgeStyle;elbow=horizontal;strokeWidth=3;strokeColor=#0C343D;fontFamily=Helvetica;html=1;rounded=0;fontSize=20;exitX=1;exitY=0.5;exitDx=0;exitDy=0;entryX=0;entryY=0.5;entryDx=0;entryDy=0;" parent="1" source="108" target="VHRcU0e1Trz6SRrGmubA-189" edge="1">
          <mxGeometry x="-37.551020408163254" y="414.17" width="131.97278911564624" height="100" as="geometry">
            <mxPoint x="1456" y="564.17" as="sourcePoint" />
            <mxPoint x="1610" y="570" as="targetPoint" />
            <Array as="points">
              <mxPoint x="1520" y="650" />
              <mxPoint x="1500" y="570" />
              <mxPoint x="1500" y="560" />
              <mxPoint x="1500" y="560" />
              <mxPoint x="1500" y="630" />
            </Array>
          </mxGeometry>
        </mxCell>
        <mxCell id="VHRcU0e1Trz6SRrGmubA-238" value="매출 통계" style="rounded=0;fillColor=#23445D;strokeColor=none;strokeWidth=2;gradientColor=none;fontFamily=Helvetica;html=1;fontColor=#FFFFFF;fontSize=20;" parent="1" vertex="1">
          <mxGeometry x="1743.5" y="1000" width="126.5" height="50" as="geometry" />
        </mxCell>
        <mxCell id="VHRcU0e1Trz6SRrGmubA-240" value="" style="edgeStyle=elbowEdgeStyle;elbow=horizontal;strokeWidth=3;strokeColor=#0C343D;fontFamily=Helvetica;html=1;rounded=0;fontSize=20;exitX=1;exitY=0.5;exitDx=0;exitDy=0;entryX=0;entryY=0.5;entryDx=0;entryDy=0;" parent="1" source="105" target="VHRcU0e1Trz6SRrGmubA-184" edge="1">
          <mxGeometry x="-47.551020408163254" y="640" width="131.97278911564624" height="100" as="geometry">
            <mxPoint x="1446" y="790" as="sourcePoint" />
            <mxPoint x="1600" y="790" as="targetPoint" />
          </mxGeometry>
        </mxCell>
        <mxCell id="VHRcU0e1Trz6SRrGmubA-247" value="" style="edgeStyle=elbowEdgeStyle;elbow=horizontal;strokeWidth=3;strokeColor=#0C343D;fontFamily=Helvetica;html=1;rounded=0;fontSize=20;endArrow=none;entryX=0;entryY=0.5;entryDx=0;entryDy=0;exitX=1;exitY=0.5;exitDx=0;exitDy=0;" parent="1" source="VHRcU0e1Trz6SRrGmubA-183" target="VHRcU0e1Trz6SRrGmubA-250" edge="1">
          <mxGeometry x="-11.961020408163254" y="279.17" width="131.97278911564624" height="100" as="geometry">
            <mxPoint x="1270" y="1010" as="sourcePoint" />
            <mxPoint x="1330" y="950" as="targetPoint" />
            <Array as="points">
              <mxPoint x="1387" y="980" />
            </Array>
          </mxGeometry>
        </mxCell>
        <mxCell id="VHRcU0e1Trz6SRrGmubA-248" value="" style="edgeStyle=elbowEdgeStyle;elbow=horizontal;strokeWidth=3;strokeColor=#0C343D;fontFamily=Helvetica;html=1;rounded=0;fontSize=20;entryX=0;entryY=0.5;entryDx=0;entryDy=0;endArrow=none;exitX=1;exitY=0.5;exitDx=0;exitDy=0;" parent="1" source="VHRcU0e1Trz6SRrGmubA-183" target="VHRcU0e1Trz6SRrGmubA-251" edge="1">
          <mxGeometry x="-1.9610204081632538" y="289.17" width="131.97278911564624" height="100" as="geometry">
            <mxPoint x="1270" y="975" as="sourcePoint" />
            <mxPoint x="1340" y="1005" as="targetPoint" />
            <Array as="points" />
          </mxGeometry>
        </mxCell>
        <mxCell id="VHRcU0e1Trz6SRrGmubA-250" value="회원통계" style="rounded=0;fillColor=#23445D;strokeColor=none;strokeWidth=2;gradientColor=none;fontFamily=Helvetica;html=1;fontSize=20;fontColor=#FFFFFF;" parent="1" vertex="1">
          <mxGeometry x="1503.67" y="940" width="176.33" height="30" as="geometry" />
        </mxCell>
        <mxCell id="VHRcU0e1Trz6SRrGmubA-252" value="크리에이터 관리" style="rounded=0;fillColor=#23445D;strokeColor=none;strokeWidth=2;gradientColor=none;fontFamily=Helvetica;html=1;fontSize=20;fontColor=#FFFFFF;" parent="1" vertex="1">
          <mxGeometry x="1500.0000000000002" y="1025" width="176.34" height="30" as="geometry" />
        </mxCell>
        <mxCell id="VHRcU0e1Trz6SRrGmubA-251" value="결제 관리" style="rounded=0;fillColor=#23445D;strokeColor=none;strokeWidth=2;gradientColor=none;fontFamily=Helvetica;html=1;fontSize=20;fontColor=#FFFFFF;" parent="1" vertex="1">
          <mxGeometry x="1503.67" y="980" width="180" height="30" as="geometry" />
        </mxCell>
        <mxCell id="VHRcU0e1Trz6SRrGmubA-258" value="" style="edgeStyle=elbowEdgeStyle;elbow=horizontal;strokeWidth=3;strokeColor=#0C343D;fontFamily=Helvetica;html=1;rounded=0;fontSize=20;exitX=1;exitY=0.5;exitDx=0;exitDy=0;entryX=0;entryY=0.5;entryDx=0;entryDy=0;" parent="1" source="VHRcU0e1Trz6SRrGmubA-208" target="VHRcU0e1Trz6SRrGmubA-252" edge="1">
          <mxGeometry x="-37.551020408163254" y="350" width="131.97278911564624" height="100" as="geometry">
            <mxPoint x="1280" y="1050" as="sourcePoint" />
            <mxPoint x="1510" y="1095" as="targetPoint" />
            <Array as="points" />
          </mxGeometry>
        </mxCell>
        <mxCell id="VHRcU0e1Trz6SRrGmubA-262" value="" style="edgeStyle=elbowEdgeStyle;elbow=horizontal;strokeWidth=3;strokeColor=#0C343D;fontFamily=Helvetica;html=1;rounded=0;fontSize=20;exitX=1;exitY=0.5;exitDx=0;exitDy=0;entryX=0;entryY=0.5;entryDx=0;entryDy=0;" parent="1" source="VHRcU0e1Trz6SRrGmubA-251" target="VHRcU0e1Trz6SRrGmubA-238" edge="1">
          <mxGeometry x="-37.551020408163254" y="350" width="131.97278911564624" height="100" as="geometry">
            <mxPoint x="1690" y="1095" as="sourcePoint" />
            <mxPoint x="1730" y="1020" as="targetPoint" />
          </mxGeometry>
        </mxCell>
        <mxCell id="VHRcU0e1Trz6SRrGmubA-263" value="" style="edgeStyle=elbowEdgeStyle;elbow=horizontal;strokeWidth=3;strokeColor=#0C343D;fontFamily=Helvetica;html=1;rounded=0;exitX=1;exitY=0.5;exitDx=0;exitDy=0;entryX=1;entryY=0.75;entryDx=0;entryDy=0;" parent="1" source="111" target="VHRcU0e1Trz6SRrGmubA-250" edge="1">
          <mxGeometry x="-37.551020408163254" y="350" width="131.97278911564624" height="100" as="geometry">
            <mxPoint x="1737" y="600" as="sourcePoint" />
            <mxPoint x="1890" y="1115" as="targetPoint" />
            <Array as="points">
              <mxPoint x="2080" y="740" />
              <mxPoint x="2090" y="850" />
            </Array>
          </mxGeometry>
        </mxCell>
        <mxCell id="VHRcU0e1Trz6SRrGmubA-264" value="" style="edgeStyle=elbowEdgeStyle;elbow=horizontal;strokeWidth=3;strokeColor=#0C343D;fontFamily=Helvetica;html=1;rounded=0;exitX=1;exitY=0.5;exitDx=0;exitDy=0;entryX=1;entryY=0.5;entryDx=0;entryDy=0;" parent="1" source="108" target="VHRcU0e1Trz6SRrGmubA-238" edge="1">
          <mxGeometry x="-37.551020408163254" y="350" width="131.97278911564624" height="100" as="geometry">
            <mxPoint x="1737" y="600" as="sourcePoint" />
            <mxPoint x="1890" y="1115" as="targetPoint" />
            <Array as="points">
              <mxPoint x="1920" y="870" />
            </Array>
          </mxGeometry>
        </mxCell>
        <mxCell id="VHRcU0e1Trz6SRrGmubA-265" value="공지/문의 관리" style="rounded=0;fillColor=#23445D;strokeColor=none;strokeWidth=2;fontFamily=Helvetica;html=1;gradientColor=none;fontColor=#FFFFFF;fontSize=20;" parent="1" vertex="1">
          <mxGeometry x="1107.41" y="950" width="162.59" height="40" as="geometry" />
        </mxCell>
        <mxCell id="VHRcU0e1Trz6SRrGmubA-267" value="" style="edgeStyle=elbowEdgeStyle;elbow=horizontal;strokeWidth=3;strokeColor=#0C343D;fontFamily=Helvetica;html=1;rounded=0;fontSize=20;entryX=0;entryY=0.5;entryDx=0;entryDy=0;" parent="1" target="VHRcU0e1Trz6SRrGmubA-265" edge="1">
          <mxGeometry x="-27.551020408163254" y="360" width="131.97278911564624" height="100" as="geometry">
            <mxPoint x="1000" y="1040" as="sourcePoint" />
            <mxPoint x="1117" y="1033" as="targetPoint" />
            <Array as="points">
              <mxPoint x="1050" y="1000" />
            </Array>
          </mxGeometry>
        </mxCell>
        <mxCell id="W7pW2lTiijL77TdgSGx0-147" value="" style="edgeStyle=elbowEdgeStyle;elbow=horizontal;strokeWidth=3;strokeColor=#0C343D;fontFamily=Helvetica;html=1;rounded=0;fontSize=20;entryX=0;entryY=0.5;entryDx=0;entryDy=0;exitX=1;exitY=0.5;exitDx=0;exitDy=0;" parent="1" source="VHRcU0e1Trz6SRrGmubA-178" target="VHRcU0e1Trz6SRrGmubA-175" edge="1">
          <mxGeometry x="-37.551020408163254" y="350" width="131.97278911564624" height="100" as="geometry">
            <mxPoint x="353" y="500" as="sourcePoint" />
            <mxPoint x="434" y="812" as="targetPoint" />
            <Array as="points">
              <mxPoint x="370" y="505" />
            </Array>
          </mxGeometry>
        </mxCell>
      </root>
    </mxGraphModel>
  </diagram>
</mxfile>
